<svg width="15" height="12" viewBox="0 0 15 12" fill="none" xmlns="http://www.w3.org/2000/svg">
<path d="M4.5 2.81L5.04 4.25H3.96L4.5 2.81ZM5.9875 3.965C6.61 3.1475 7.505 2.555 8.6125 2.2475C7.96 0.8275 6.5075 0 4.5 0C1.7225 0 0 1.58 0 4.125C0 5.4225 0.45 6.4675 1.2575 7.18L0 8.4375L0.375 9C1.39 9 2.325 8.66 3.0775 8.0925C3.5125 8.195 3.9875 8.25 4.5 8.25C4.705 8.25 4.9025 8.2375 5.0975 8.2225C5.035 7.875 5 7.51 5 7.125C5 6.4425 5.1075 5.8175 5.305 5.25H3.585L3.305 6H2.25L3.75 2H5.25L5.9875 3.965ZM10.5 7.33C10.7475 7.105 10.96 6.8325 11.1 6.5H9.9025C10.0425 6.8325 10.255 7.105 10.5025 7.33H10.5ZM13.7425 10.18L15 11.4375L14.625 12C13.61 12 12.675 11.66 11.9225 11.0925C11.4875 11.195 11.0125 11.25 10.5 11.25C7.7225 11.25 6 9.67 6 7.125C6 4.58 7.7225 3 10.5 3C13.2775 3 15 4.58 15 7.125C15 8.4225 14.55 9.4675 13.7425 10.18ZM12.75 5.5H11V4.75H10V5.5H8.25V6.5H8.8725C9.0175 6.9925 9.2925 7.465 9.6775 7.88C8.9875 8.22 8.3325 8.315 8.3325 8.315L8.6825 9.2525C9.3775 9.1275 9.985 8.8825 10.4975 8.5575C11.01 8.8825 11.62 9.13 12.3125 9.2525L12.6625 8.315C12.6625 8.315 12.0075 8.22 11.3175 7.88C11.705 7.465 11.9775 6.9925 12.1225 6.5H12.745V5.5H12.75Z" fill="white"/>
</svg>
