<svg width="29" height="29" viewBox="0 0 29 29" fill="none" xmlns="http://www.w3.org/2000/svg">
<path d="M14.5 0C6.49192 0 0 6.49192 0 14.5C0 22.5085 6.49192 29 14.5 29C22.5085 29 29 22.5085 29 14.5C29 6.49192 22.5085 0 14.5 0ZM14.5 27.216C7.5042 27.216 1.8125 21.4958 1.8125 14.4999C1.8125 7.50415 7.5042 1.81244 14.5 1.81244C21.4958 1.81244 27.1875 7.50417 27.1875 14.4999C27.1875 21.4957 21.4958 27.216 14.5 27.216ZM20.2869 9.19436L11.7794 17.7552L7.94824 13.9241C7.59435 13.5702 7.02069 13.5702 6.66635 13.9241C6.31246 14.278 6.31246 14.8516 6.66635 15.2055L11.1518 19.6915C11.5057 20.0449 12.0794 20.0449 12.4337 19.6915C12.4745 19.6507 12.5094 19.6062 12.5411 19.56L21.5692 10.4762C21.9226 10.1223 21.9226 9.54867 21.5692 9.19436C21.2149 8.84047 20.6412 8.84047 20.2869 9.19436Z" fill="#0044FF"/>
</svg>
